<?xml version="1.0" encoding="UTF-8" standalone="no"?>
<svg
   width="185.00224mm"
   height="107.69694mm"
   viewBox="0 0 185.00224 107.69694"
   version="1.1"
   id="brush-strokes"
   xmlns="http://www.w3.org/2000/svg"
   xmlns:svg="http://www.w3.org/2000/svg">
   <defs
      id="defs1" />
   <g
      id="layer1"
      transform="translate(-12.498877,-94.651532)">
      <path
         style="fill:rgba(63, 63, 63, 0.85);stroke-width:0.264583"
         id="path2"
         d="m 24.021514,112.0633 c -1.68653,1.18921 -3.511141,2.54419 -4.189588,4.60379 -0.20719,0.62897 -0.603936,1.32703 -0.379528,1.95007 0.845437,2.34724 2.313612,4.42091 3.470419,6.63136 2.279443,0.014 4.566166,0.22452 6.838331,0.042 1.125014,-0.0904 2.204956,-0.49956 3.276285,-0.85463 3.561731,-1.18048 7.016756,-3.00113 9.891816,-5.42824 0.712158,-0.6012 1.300932,-1.33492 1.951397,-2.00238 0.560152,-4.72363 0.600083,-2.13763 -8.644334,-7.90948 -0.622247,-0.38851 -1.48495,-0.31806 -2.196327,-0.13898 -1.311479,0.33016 -2.51746,1.0019 -3.71647,1.62749 -4.074545,2.12591 -5.129747,3.14401 -8.871734,5.9165 -3.119185,2.91088 -4.540624,3.89144 -6.902905,7.33036 -0.732718,1.06667 -2.294685,3.75451 -2.017397,5.36031 0.441022,2.55401 0.0358,5.96214 2.140213,7.47506 2.414447,1.73581 5.939102,0.31218 8.908653,0.46827 3.404823,-0.69272 8.485245,-1.6599 11.51316,-2.66913 8.813962,-2.93774 17.092724,-7.64961 24.396544,-13.35956 2.1181,-1.65589 4.023791,-3.56683 6.035685,-5.35025 2.04529,-2.55633 4.859184,-5.14375 5.451671,-8.62248 0.946401,-5.55671 -10.988082,-8.130173 -12.017309,-8.328298 -2.031412,-0.391049 -11.347611,6.630388 -11.888718,7.006538 -2.275562,1.9615 -4.637948,3.82655 -6.826687,5.88448 -4.914852,4.62112 -8.724442,8.9154 -12.907224,14.1934 -3.227762,4.07291 -6.797197,9.07384 -9.470771,13.58167 -1.05564,1.77988 -1.933873,3.65917 -2.90081,5.48876 -0.847502,2.30833 -2.216342,4.70577 -1.721051,7.31058 0.422955,2.22438 -0.03334,5.41519 1.950469,6.50665 6.795864,3.73897 14.812383,-1.36569 20.485804,-4.36006 6.102964,-3.64395 7.300663,-4.23408 13.380463,-8.41879 2.553652,-1.75767 5.00644,-3.65894 7.559738,-5.41713 2.917778,-2.00916 5.978165,-3.81022 8.850966,-5.88318 7.370363,-5.31832 8.230701,-6.47739 14.605646,-12.43817 0.466484,-0.57459 5.860938,-6.32907 5.735277,-8.6109 -0.03674,-0.66725 -1.26388,-0.47499 -1.812769,-0.85617 -3.142255,-2.18215 -5.641787,-5.50001 -9.234172,-6.81542 -1.439228,-0.527 -2.874709,1.10865 -4.186582,1.90117 -1.90252,1.14935 -3.60736,2.59794 -5.411038,3.8969 -7.044672,5.71882 -13.776685,11.8432 -20.198659,18.25343 -2.324677,2.32043 -4.553318,4.73511 -6.831219,7.10147 -2.390476,2.48331 -4.905494,4.85224 -7.17391,7.44752 -2.092243,2.39371 -3.927639,5.0003 -5.891459,7.50046 -2.769281,4.52817 -5.07418,7.15393 -6.021343,12.31344 -0.224284,1.22174 -0.317563,2.57227 0.148953,3.7235 1.178099,2.90721 1.8402,6.81736 4.670569,8.16968 3.676825,1.75674 12.419438,-2.26543 16.068441,-3.69802 7.426233,-3.88033 8.661125,-4.30952 16.055279,-9.17107 3.208102,-2.10929 6.270932,-4.43236 9.445281,-6.59211 12.722185,-8.65586 11.949258,-7.20925 23.756218,-17.64079 3.65107,-3.22575 7.048886,-6.72728 10.573329,-10.09093 2.755173,-3.16336 5.692443,-6.17692 8.265503,-9.4901 2.30017,-2.96179 6.77734,-9.07318 7.16298,-13.56697 0.0922,-1.07394 -0.31278,-2.36699 -1.17628,-3.01215 -3.49018,-2.6077 -7.17115,-5.353296 -11.40354,-6.38688 -1.86711,-0.455965 -3.521366,1.541412 -5.282046,2.312119 -10.57165,6.130021 -5.698207,2.903791 -16.48346,11.034411 -10.963809,8.26524 -12.972343,9.30173 -22.91784,19.29344 -9.006679,9.04853 -11.381621,12.59982 -19.121519,22.3911 -4.958046,7.41485 -7.444873,10.34867 -10.921264,18.15862 -1.549179,3.48034 -2.67988,6.614 -2.387482,10.4031 0.109097,1.41376 -0.26396,3.34798 0.900178,4.15754 3.182737,2.21332 7.26806,2.69995 10.902088,4.04992 7.826735,-1.9203 3.894807,-0.65982 12.38127,-4.19789 3.48111,-1.45129 7.048894,-2.71213 10.43719,-4.36859 10.778392,-5.26929 14.733487,-8.42965 24.994325,-15.06164 4.954984,-3.20261 9.933575,-6.36854 14.90036,-9.55281 12.01379,-9.06941 15.69371,-11.21744 26.24267,-21.5277 4.63971,-4.53474 11.00809,-11.3148 14.14257,-17.42804 2.76233,-5.38744 2.22664,-4.57841 -1.2067,-6.71123 -3.60662,-2.30013 -6.65701,-5.91604 -10.81986,-6.9004 -2.13463,-0.50476 -4.01877,1.79303 -5.88164,2.95111 -5.01955,3.12049 -10.05268,7.50333 -14.28592,11.54413 -2.5621,2.44562 -4.91786,5.09966 -7.43887,7.58761 -3.251862,3.20922 -6.585278,6.33474 -9.877917,9.50212 -9.819037,10.71833 -18.364338,22.51537 -25.301885,35.29342 -2.764951,5.09268 -6.36013,12.56077 -7.862784,18.42381 -0.460528,1.79689 -0.424259,3.6856 -0.636389,5.52839 2.196804,5.86617 1.755487,6.73947 12.334801,8.77312 2.114785,0.40653 4.065103,-1.46358 5.972355,-2.46356 2.534989,-1.32911 4.947144,-2.88956 7.312284,-4.50164 5.837478,-3.97885 12.456448,-9.4178 17.928845,-13.76498 7.1266,-5.31689 13.29225,-11.78115 20.23409,-17.31367 16.81129,-13.39829 10.08443,-5.90693 25.83328,-20.89945 9.94656,-9.46889 10.54725,-10.88106 18.60014,-21.00979 2.53919,-4.45194 5.64671,-8.17069 5.86502,-13.46523 0.24711,-5.99305 -8.5478,-8.46919 -12.41617,-9.290858 -2.00139,-0.425112 -10.14589,6.211498 -10.7437,6.656658 -7.04971,6.03658 -13.02304,13.1713 -18.98444,20.24429 -2.25792,2.67894 -4.35956,5.49255 -6.71732,8.08405 -31.110266,34.19448 14.28042,-17.53624 -17.53399,19.00264 -6.99579,8.91748 -8.675529,10.69133 -14.811155,19.87368 -1.795976,2.68779 -3.539961,5.41417 -5.151438,8.21646 -0.907642,1.57836 -4.406955,7.71646 -4.322849,10.50654 0.02217,0.73514 0.858877,1.19417 1.288314,1.79125 3.637013,2.13801 6.862119,5.2286 10.911033,6.41403 1.694651,0.49615 3.387021,-1.03273 4.997738,-1.75632 2.310457,-1.03795 4.532467,-2.2675 6.736707,-3.51525 5.85604,-3.31492 12.93956,-7.8543 18.34064,-11.67982 3.69105,-2.61431 7.25102,-5.40893 10.87653,-8.11339 6.19978,-4.33728 24.01477,-16.65947 29.29794,-20.99045 4.94136,-4.05079 9.6236,-8.42421 14.11912,-12.96472 6.42492,-6.48923 13.61621,-14.65017 17.87533,-22.99012 1.19033,-2.33084 1.58875,-4.98745 2.38312,-7.48118 -2.84903,-6.4624 -2.655,-8.14125 -14.14437,-9.82299 -2.51609,-0.36829 -4.70462,1.987 -6.86215,3.33288 -5.72484,3.5712 -12.23363,9.39755 -16.90906,14.06548 -2.99537,2.99057 -5.74803,6.21475 -8.62205,9.32213 -2.6356,3.26506 -5.33657,6.47843 -7.90679,9.7952 -5.37069,6.93067 -8.45675,11.3002 -13.07575,18.60178 -10.7347,16.96911 0.55206,-0.46229 -8.42823,14.73543 -1.20848,2.04517 -2.59237,3.98148 -3.88856,5.97223 -1.7938,3.34902 -3.41889,5.63885 -4.13122,9.33478 -0.15759,0.81762 -0.21939,1.71176 0.0566,2.49737 0.94712,2.6962 0.93913,6.66052 3.56032,7.79889 3.69184,1.60336 10.57145,-2.92918 13.87071,-4.82646 1.94611,-1.33846 3.93741,-2.61349 5.83834,-4.01538 4.81188,-3.54864 10.18393,-8.036 14.68371,-11.89434 8.35691,-7.16565 16.3863,-14.67072 24.40558,-22.20789 6.97375,-6.90094 7.11828,-6.82527 13.3814,-13.81471 1.64337,-1.83396 3.34709,-3.62378 4.83202,-5.58822 1.03423,-1.36819 1.98616,-2.82015 2.70204,-4.3787 0.37157,-0.80895 1.29538,-2.19613 0.51304,-2.62087 -2.82621,-1.5344 -6.26222,-1.46692 -9.39333,-2.20038 -1.01253,-1.16979 -1.49224,-3.4348 -3.03758,-3.50938 -1.87342,-0.0904 -3.2029,1.97003 -4.67095,3.13739 -2.03532,1.61845 -3.89804,3.44326 -5.81473,5.2006 -2.65316,2.43257 -5.4276,4.74676 -7.89406,7.36846 -5.43121,5.77306 -10.68292,13.20814 -15.39009,19.51637 -1.86975,3.40045 -3.9848,6.67711 -5.60926,10.20132 -1.94736,4.22473 -4.04578,9.95201 -3.66111,14.87542 0.47449,6.0729 7.2113,8.47399 12.55819,9.50189 1.84323,0.35434 3.34769,-1.69857 5.02153,-2.54786 5.71687,-3.57602 10.61707,-8.2016 15.5574,-12.73882 3.99675,-3.67064 6.80806,-6.17091 10.63081,-9.99464 1.50095,-1.50133 2.93798,-3.06523 4.40697,-4.59785 1.89538,-2.3323 3.65016,-4.17246 5.01458,-6.81295 0.2787,-0.53936 0.69496,-1.13833 0.56521,-1.73142 -0.0744,-0.34003 -0.7216,-0.0802 -1.00559,-0.28146 -9.27707,-6.57526 -4.96868,-7.46998 -10.01319,-5.84582 -0.81274,0.6633 -1.65235,1.29498 -2.43823,1.9899 -2.252,1.99136 -4.24831,4.05115 -6.29537,6.26084 -2.39879,2.58936 -4.96939,5.48177 -7.07288,8.3173 -1.057,1.42486 -1.99135,2.93675 -2.98703,4.40512 -1.3377,2.56732 -2.56361,4.37692 -3.1266,7.1895 -0.14759,0.73735 -0.35278,1.56331 -0.0582,2.25517 1.15118,2.70359 1.64763,6.42488 4.29612,7.6977 2.92841,1.40735 8.90711,-2.25882 11.70938,-3.77334 4.13498,-2.43201 7.97839,-5.37688 11.48557,-8.64864 1.48686,-1.38705 3.43443,-3.38673 4.60258,-5.15736 0.28452,-0.43126 0.43228,-0.93855 0.64841,-1.40782 -3.59759,-0.55768 -3.65283,-0.46675 -8.89391,-4.64665 -1.65882,-1.32295 1.01742,-2.59248 -0.66266,-1.6535 -0.46468,0.66907 8.99745,7.2407 9.46213,6.57163 v 0 c 0.64956,-0.99866 2.55408,-3.64352 1.7408,-4.63015 -5.12153,-6.21312 -5.67171,-5.63551 -10.2051,-4.9486 -0.81002,0.2118 -1.64702,0.33901 -2.43006,0.63539 -5.28738,2.00125 -10.59274,6.44445 -14.34121,10.57989 -1.02445,1.13021 -1.91932,2.37143 -2.87898,3.55714 -3.53021,6.16297 -0.80963,-0.5608 3.15506,3.49673 1.95296,1.99869 1.84484,5.36184 3.48395,7.62506 0.33481,0.46228 1.12391,-0.29104 1.60374,-0.60017 2.11718,-1.364 3.80389,-3.42797 5.49586,-5.22305 1.08531,-1.35246 2.21472,-2.67068 3.25593,-4.05737 4.37416,-5.82556 8.0278,-12.18277 11.18414,-18.73815 2.03624,-5.55541 2.12008,-3.42571 -6.52661,-10.39815 -0.54391,-0.43859 -1.39988,0.0428 -2.09111,0.14471 -0.9134,0.13463 -1.83596,0.27151 -2.71193,0.56322 -3.80099,1.26575 -5.1631,2.39835 -8.76706,4.5624 -1.84055,1.40828 -3.74585,2.73573 -5.52165,4.22482 -4.28286,3.5914 -7.25775,6.65488 -10.99959,10.80619 -2.83828,3.14887 -6.32467,7.27685 -8.71134,10.83167 -0.97629,1.45412 -1.75883,3.02935 -2.63825,4.54402 -0.14768,0.91568 -1.04054,2.03761 -0.44305,2.74703 2.40037,2.85003 5.53957,5.03996 8.68454,7.03836 0.71859,0.45661 1.77815,0.45646 2.55213,0.10176 3.51772,-1.61213 8.76633,-7.50457 10.74499,-9.88227 2.4085,-2.89425 4.528,-6.01728 6.792,-9.02591 1.50044,-2.4787 10.6417,-17.48521 12.15552,-20.34564 1.58943,-3.00331 2.86143,-6.16418 4.3013,-9.24199 1.27004,-2.71478 4.46267,-8.74895 4.95337,-12.12974 0.38787,-2.67228 0.12136,-5.39919 0.18203,-8.09878 -3.2471,-0.91981 -6.41184,-2.20766 -9.74129,-2.75942 -2.5289,-0.41909 -7.4262,1.96116 -9.07481,2.87018 -2.32243,1.28054 -4.50114,2.80928 -6.68653,4.3118 -7.67279,5.27531 -8.43611,6.19557 -15.8724,12.33475 -2.79599,2.55287 -5.65387,5.03957 -8.38797,7.65861 -9.83065,9.41694 -19.23567,19.90158 -26.60877,31.38676 -1.22468,1.90769 -2.27373,3.92257 -3.41059,5.88386 -3.77517,9.10782 -1.52344,-0.19739 4.20385,5.39274 1.98832,1.9407 1.41242,5.56401 3.18678,7.70209 0.55394,0.66748 1.68717,-0.48513 2.42777,-0.93666 3.19262,-1.94652 5.00877,-4.26772 7.62729,-6.98924 1.49658,-1.80526 2.89845,-3.69342 4.48975,-5.41578 1.74552,-1.88926 3.69569,-3.57911 5.50755,-5.40485 2.19199,-2.20879 4.36912,-4.43302 6.50315,-6.69787 6.82889,-7.24755 8.41706,-9.1438 14.90213,-16.99897 2.59197,-3.13957 5.1311,-6.3224 7.69664,-9.48359 5.38475,-7.16712 8.84995,-11.4537 13.58028,-18.97874 1.66956,-2.65594 3.32687,-5.33546 4.6745,-8.16837 0.98785,-2.07661 3.11289,-4.34966 2.30453,-6.5025 -3.78675,-10.085052 -6.20593,-9.727277 -13.00838,-11.329139 -2.68676,0.842955 -5.50684,1.341776 -8.06028,2.528869 -8.9321,4.15252 -17.54991,10.58489 -24.97684,16.8503 -4.82367,4.06928 -9.49547,8.33321 -13.91335,12.83978 -4.29444,4.38065 -18.23266,20.80876 -22.76622,26.10666 -6.41346,6.76395 -10.52577,10.94546 -16.556175,17.87315 -2.977539,3.42057 -7.854162,9.1755 -10.35952,13.27003 -0.904502,1.47824 -2.900997,3.08426 -2.246143,4.68878 1.53816,3.76877 5.296532,6.18265 7.9448,9.27397 0.98458,0.11066 1.987057,0.54912 2.953744,0.33196 3.850582,-0.86502 8.768794,-4.51982 11.489344,-6.73173 9.27196,-7.53848 17.02864,-16.746 24.40357,-26.07918 15.34036,-21.34996 0.72442,-0.41145 14.30778,-21.59036 1.87701,-2.92659 3.95764,-5.71774 5.89621,-8.60392 1.7697,-2.63477 3.47785,-5.31038 5.22807,-7.95813 8.00322,-12.10735 1.50955,-2.12783 8.76987,-13.35275 1.03057,-1.73734 2.17405,-3.4125 3.09172,-5.21203 0.64931,-1.27327 2.2693,-2.71926 1.59569,-3.97984 -1.86392,-3.48814 -5.39471,-5.79199 -8.269,-8.50856 -0.651,-0.615273 -1.36871,-1.44757 -2.26445,-1.446882 -4.38428,0.0034 -11.15183,4.292002 -14.2158,5.870502 -3.61354,2.47711 -7.3488,4.78539 -10.84062,7.43132 -8.36598,6.33934 -16.86687,13.91945 -24.07652,21.52465 -3.69149,3.89403 -6.88003,8.24208 -10.52842,12.17652 -6.092473,6.57014 -13.077446,12.28293 -18.744086,19.26719 -5.732563,6.87349 -9.011483,10.31344 -13.715669,17.69999 -1.423522,2.23522 -2.797334,4.52646 -3.827605,6.96801 -0.620443,1.47033 -1.950135,3.32571 -1.080818,4.66403 5.371378,8.26928 6.11918,7.62006 11.777985,7.41368 1.61212,-1.02909 3.352885,-1.88009 4.836359,-3.08725 4.812723,-3.91631 10.212546,-10.09608 14.003448,-14.73936 8.758586,-10.72793 16.404076,-22.29214 23.609406,-34.10197 2.06353,-3.55676 3.91497,-7.24534 6.19059,-10.67029 1.84464,-2.7763 4.12441,-5.2379 6.14207,-7.89112 3.18782,-4.19196 7.00833,-9.22989 9.67139,-13.85462 0.97354,-1.69068 2.99456,-3.36549 2.55422,-5.2661 -0.96061,-4.14628 -4.22785,-7.38802 -6.34178,-11.08204 -1.16581,-0.3999 -2.26636,-1.140304 -3.49742,-1.199708 -5.38186,-0.259704 -10.934,2.235278 -15.51922,4.497058 -4.11361,2.02914 -8.09905,4.32493 -11.98078,6.76856 -12.579888,7.91934 -15.532812,10.91523 -27.261403,20.423 -4.126624,3.91327 -8.218095,7.86394 -12.379877,11.7398 -8.239853,7.67376 -12.469252,10.9066 -19.937812,19.03329 -2.329887,2.5352 -4.382749,5.31189 -6.605712,7.94135 -1.43311,1.69516 -3.051929,3.23989 -4.361963,5.03188 -0.83217,1.13831 -1.353214,2.47425 -2.029822,3.71137 2.635861,1.89478 5.550802,3.45196 7.907583,5.68434 0.678781,0.64295 0.02297,2.3293 0.898586,2.65701 1.067178,0.39939 2.222799,-0.58345 3.232901,-1.11078 1.875348,-0.97904 3.642884,-2.16077 5.371039,-3.38099 7.099348,-5.01272 9.469094,-7.45848 16.338971,-13.48737 8.64848,-8.39166 12.335687,-11.62109 20.361052,-20.88657 10.216809,-11.79555 8.564237,-10.64617 17.084847,-22.90873 8.53044,-12.27671 3.66445,-4.15166 10.01669,-15.59768 0.64454,-1.56117 2.62593,-3.14291 1.93363,-4.6835 -0.0832,-0.18508 -6.65755,-10.818288 -11.44052,-10.308428 -4.714791,0.502595 -11.527082,4.750131 -14.888033,7.003188 -3.560575,2.38687 -6.862953,5.13802 -10.294427,7.70703 -9.34884,8.30365 -12.548232,10.75196 -21.100447,19.93063 -3.053008,3.27665 -5.76558,6.85856 -8.79676,10.15541 -2.439382,2.65317 -5.096537,5.09793 -7.605988,7.68493 -6.203262,6.39497 -5.955048,6.24615 -11.428158,12.43965 -5.964495,8.31367 -2.853737,0.99598 1.104569,6.4643 1.655855,2.28753 1.380524,5.64857 3.111637,7.8797 0.544997,0.70241 1.817635,-0.11101 2.621672,-0.49039 3.867814,-1.82501 7.125107,-5.17453 10.247924,-7.90158 11.086385,-10.90655 2.27608,-1.96398 13.310499,-13.99035 2.247514,-2.44956 4.621043,-4.78289 6.833798,-7.26389 5.982317,-6.70752 11.548378,-13.81603 16.383426,-21.39741 0.182991,-0.32042 5.457008,-8.85075 4.943851,-10.31512 -1.332143,-3.80147 -4.003085,-7.11898 -6.891285,-9.92684 -0.884533,-0.85993 -2.452891,-0.43417 -3.683944,-0.35423 -4.899893,0.31817 -6.90716,1.8018 -11.625448,3.86569 -7.343468,4.58668 -9.625711,5.63123 -16.367119,11.50689 -2.624034,2.28705 -4.953945,4.89161 -7.472114,7.29473 -5.845924,5.57884 -11.980268,10.87978 -17.328563,16.96179 -1.206692,1.45379 -2.497182,2.84191 -3.620074,4.36135 -0.754126,1.02045 -2.788318,2.24788 -1.997663,3.24029 1.546828,1.94155 5.171509,1.06457 6.869802,2.87511 1.395241,1.48746 0.216392,4.30053 1.411236,5.95328 1.333906,1.84511 5.965974,-6.10811 5.879818,-3.47581 1.54533,-1.38768 3.139537,-2.72278 4.635994,-4.16303 3.475533,-3.34498 8.005924,-8.2453 11.157262,-11.79237 5.887921,-6.6273 11.480647,-13.51217 16.615955,-20.74208 1.249627,-1.97318 2.62817,-3.87039 3.748879,-5.91954 0.805333,-1.47251 2.68292,-3.07652 2.01273,-4.61525 -1.590733,-3.65225 -5.246515,-5.99648 -7.920683,-8.949151 -0.43707,-0.48259 -0.76259,-1.276985 -1.40929,-1.352484 -2.246915,-0.262313 -7.7505,2.568154 -9.029239,3.125535 -2.276316,1.26073 -4.596286,2.44567 -6.828952,3.78218 -4.711967,2.82065 -10.304544,6.60169 -14.653098,9.94825 -2.13791,1.64529 -4.247774,3.33568 -6.232431,5.16291 -0.388172,0.35738 -5.518168,5.8294 -6.70487,7.09319 9.154099,3.75672 2.489861,-0.64263 6.630466,9.20026 0.192358,0.45727 1.019583,0.11729 1.487476,-0.0476 0.993504,-0.34999 1.906051,-0.90748 2.800897,-1.46318 2.943538,-1.82792 4.706245,-3.4379 7.425574,-5.66612 3.518797,-3.27229 7.260389,-6.53781 9.59235,-10.8339 0.56493,-1.04075 1.966915,-2.2959 1.329999,-3.29422 -1.99767,-3.13123 -5.211664,-5.34611 -8.22644,-7.51553 -0.552853,-0.39783 -1.359535,0.0856 -2.0393,0.12833 -0.834919,0.36761 -1.698855,0.67534 -2.504755,1.10283 -2.496479,1.32429 -5.407447,3.41575 -7.575179,5.24928 -0.457289,0.38679 -1.75006,0.85984 -1.293339,1.2473 1.01348,0.85979 2.582818,0.62814 3.874227,0.9422 0.755113,2.10693 1.525537,4.20844 2.265341,6.32079 0.061,0.17417 -0.04528,0.56953 0.136295,0.53658 0.323475,-0.0587 0.492967,-0.4384 0.705387,-0.68932 0.732843,-0.86564 1.454897,-1.88098 1.610448,-3.02871 0.465383,-0.59997 -8.019437,-7.18147 -8.484819,-6.5815 z" />
   </g>
</svg>